<svg xmlns="http://www.w3.org/2000/svg" width="145" height="40" fill="none" viewBox="0 0 145 40"><mask id="mask0_9_8" style="mask-type:alpha" width="145" height="40" x="0" y="0" maskUnits="userSpaceOnUse"><rect width="143" height="38" x="1" y="1" fill="url(#paint0_radial_9_8)" fill-opacity=".2" rx="8"/><rect width="143" height="38" x="1" y="1" stroke="url(#paint1_radial_9_8)" stroke-width="2" rx="8"/><rect width="143" height="38" x="1" y="1" stroke="url(#paint2_radial_9_8)" stroke-opacity=".5" stroke-width="2" rx="8"/></mask><g mask="url(#mask0_9_8)"><g filter="url(#filter0_b_9_8)"><rect width="145" height="40" fill="url(#paint3_radial_9_8)" fill-opacity=".2" rx="9"/><rect width="143" height="38" x="1" y="1" stroke="url(#paint4_radial_9_8)" stroke-width="2" rx="8"/><rect width="143" height="38" x="1" y="1" stroke="url(#paint5_radial_9_8)" stroke-opacity=".5" stroke-width="2" rx="8"/></g></g><path stroke="#fff" stroke-linecap="round" stroke-linejoin="round" stroke-opacity=".8" stroke-width="1.5" d="M25.75 17.25L31.25 22.75M31.25 22.75L25.75 28.25M31.25 22.75H20.25C18.7913 22.75 17.3924 22.1705 16.3609 21.1391C15.3295 20.1076 14.75 18.7087 14.75 17.25C14.75 15.7913 15.3295 14.3924 16.3609 13.3609C17.3924 12.3295 18.7913 11.75 20.25 11.75H23"/><path fill="#fff" fill-opacity=".8" d="M44.076 26V15.0909H48.1669C49.005 15.0909 49.7081 15.2472 50.2763 15.5597C50.848 15.8722 51.2795 16.3018 51.5707 16.8487C51.8654 17.392 52.0128 18.0099 52.0128 18.7024C52.0128 19.402 51.8654 20.0234 51.5707 20.5668C51.2759 21.1101 50.8409 21.538 50.2656 21.8505C49.6903 22.1594 48.9819 22.3139 48.1403 22.3139H45.429V20.6893H47.8739C48.364 20.6893 48.7653 20.604 49.0778 20.4336C49.3903 20.2631 49.6211 20.0288 49.7702 19.7305C49.9229 19.4322 49.9993 19.0895 49.9993 18.7024C49.9993 18.3153 49.9229 17.9744 49.7702 17.6797C49.6211 17.3849 49.3885 17.1559 49.0724 16.9925C48.7599 16.8256 48.3569 16.7422 47.8633 16.7422H46.0522V26H44.076ZM53.6441 26V17.8182H55.5138V19.1818H55.599C55.7481 18.7095 56.0038 18.3455 56.366 18.0898C56.7318 17.8306 57.1491 17.701 57.6178 17.701C57.7243 17.701 57.8433 17.7063 57.9747 17.717C58.1096 17.7241 58.2215 17.7365 58.3103 17.7543V19.5281C58.2286 19.4996 58.099 19.4748 57.9214 19.4535C57.7474 19.4286 57.5787 19.4162 57.4154 19.4162C57.0638 19.4162 56.7478 19.4925 56.4672 19.6452C56.1903 19.7944 55.9719 20.0021 55.8121 20.2685C55.6523 20.5348 55.5724 20.842 55.5724 21.19V26H53.6441ZM62.8766 26.1598C62.0563 26.1598 61.3478 25.9893 60.7512 25.6484C60.1582 25.304 59.7019 24.8175 59.3823 24.1889C59.0627 23.5568 58.9029 22.8129 58.9029 21.957C58.9029 21.1154 59.0627 20.3768 59.3823 19.7411C59.7054 19.1019 60.1564 18.6048 60.7353 18.2496C61.3141 17.891 61.9941 17.7116 62.7754 17.7116C63.2797 17.7116 63.7555 17.7933 64.2029 17.9567C64.6539 18.1165 65.0517 18.3651 65.3961 18.7024C65.7441 19.0398 66.0176 19.4695 66.2164 19.9915C66.4153 20.5099 66.5147 21.1278 66.5147 21.8452V22.4364H59.8084V21.1367H64.6664C64.6628 20.7674 64.5829 20.4389 64.4267 20.1513C64.2704 19.8601 64.052 19.631 63.7715 19.4641C63.4945 19.2972 63.1713 19.2138 62.802 19.2138C62.4078 19.2138 62.0616 19.3097 61.7633 19.5014C61.465 19.6896 61.2324 19.9382 61.0655 20.2472C60.9022 20.5526 60.8187 20.8881 60.8152 21.2539V22.3885C60.8152 22.8643 60.9022 23.2727 61.0762 23.6136C61.2502 23.951 61.4934 24.2102 61.8059 24.3913C62.1184 24.5689 62.4842 24.6577 62.9032 24.6577C63.1838 24.6577 63.4377 24.6186 63.665 24.5405C63.8922 24.4588 64.0893 24.3398 64.2562 24.1836C64.4231 24.0273 64.5492 23.8338 64.6344 23.603L66.4348 23.8054C66.3212 24.2812 66.1046 24.6967 65.785 25.0518C65.4689 25.4034 65.0641 25.6768 64.5705 25.8722C64.0769 26.0639 63.5123 26.1598 62.8766 26.1598ZM74.6127 19.9808L72.8548 20.1726C72.8051 19.995 72.7181 19.8281 72.5938 19.6719C72.4731 19.5156 72.3097 19.3896 72.1038 19.2937C71.8978 19.1978 71.6457 19.1499 71.3474 19.1499C70.9461 19.1499 70.6088 19.2369 70.3353 19.4109C70.0654 19.5849 69.9323 19.8104 69.9358 20.0874C69.9323 20.3253 70.0193 20.5188 70.1968 20.668C70.3779 20.8171 70.6762 20.9396 71.0917 21.0355L72.4873 21.3338C73.2615 21.5007 73.8367 21.7653 74.2132 22.1275C74.5931 22.4897 74.7849 22.9638 74.7884 23.5497C74.7849 24.0646 74.634 24.5192 74.3357 24.9134C74.0409 25.304 73.6308 25.6094 73.1052 25.8295C72.5796 26.0497 71.9759 26.1598 71.2941 26.1598C70.2927 26.1598 69.4866 25.9503 68.8758 25.5312C68.265 25.1087 67.901 24.521 67.7838 23.7681L69.6642 23.587C69.7494 23.9563 69.9305 24.2351 70.2075 24.4233C70.4845 24.6115 70.8449 24.7056 71.2888 24.7056C71.7469 24.7056 72.1144 24.6115 72.3914 24.4233C72.672 24.2351 72.8122 24.0025 72.8122 23.7255C72.8122 23.4911 72.7217 23.2976 72.5406 23.1449C72.363 22.9922 72.086 22.875 71.7096 22.7933L70.314 22.5004C69.5292 22.337 68.9486 22.0618 68.5722 21.6747C68.1958 21.2841 68.0093 20.7905 68.0129 20.1939C68.0093 19.6896 68.146 19.2528 68.423 18.8835C68.7036 18.5107 69.0924 18.223 69.5896 18.0206C70.0903 17.8146 70.6673 17.7116 71.3208 17.7116C72.2796 17.7116 73.0342 17.9158 73.5846 18.3242C74.1386 18.7326 74.4813 19.2848 74.6127 19.9808ZM82.8451 19.9808L81.0873 20.1726C81.0376 19.995 80.9506 19.8281 80.8263 19.6719C80.7055 19.5156 80.5422 19.3896 80.3362 19.2937C80.1302 19.1978 79.8781 19.1499 79.5798 19.1499C79.1785 19.1499 78.8412 19.2369 78.5677 19.4109C78.2979 19.5849 78.1647 19.8104 78.1682 20.0874C78.1647 20.3253 78.2517 20.5188 78.4292 20.668C78.6104 20.8171 78.9086 20.9396 79.3241 21.0355L80.7197 21.3338C81.4939 21.5007 82.0692 21.7653 82.4456 22.1275C82.8256 22.4897 83.0173 22.9638 83.0209 23.5497C83.0173 24.0646 82.8664 24.5192 82.5681 24.9134C82.2733 25.304 81.8632 25.6094 81.3376 25.8295C80.8121 26.0497 80.2084 26.1598 79.5265 26.1598C78.5251 26.1598 77.719 25.9503 77.1082 25.5312C76.4974 25.1087 76.1334 24.521 76.0162 23.7681L77.8966 23.587C77.9818 23.9563 78.1629 24.2351 78.4399 24.4233C78.7169 24.6115 79.0773 24.7056 79.5212 24.7056C79.9793 24.7056 80.3469 24.6115 80.6238 24.4233C80.9044 24.2351 81.0447 24.0025 81.0447 23.7255C81.0447 23.4911 80.9541 23.2976 80.773 23.1449C80.5954 22.9922 80.3184 22.875 79.942 22.7933L78.5464 22.5004C77.7616 22.337 77.181 22.0618 76.8046 21.6747C76.4282 21.2841 76.2417 20.7905 76.2453 20.1939C76.2417 19.6896 76.3785 19.2528 76.6555 18.8835C76.936 18.5107 77.3248 18.223 77.822 18.0206C78.3227 17.8146 78.8998 17.7116 79.5532 17.7116C80.512 17.7116 81.2666 17.9158 81.817 18.3242C82.371 18.7326 82.7137 19.2848 82.8451 19.9808ZM88.4168 26V15.0909H95.512V16.7475H90.393V19.7092H95.1444V21.3658H90.393V24.3434H95.5546V26H88.4168ZM99.3712 21.206V26H97.4429V17.8182H99.286V19.2085H99.3818C99.57 18.7504 99.8701 18.3864 100.282 18.1165C100.698 17.8466 101.211 17.7116 101.821 17.7116C102.386 17.7116 102.878 17.8324 103.297 18.0739C103.72 18.3153 104.046 18.6651 104.277 19.1232C104.511 19.5813 104.627 20.1371 104.623 20.7905V26H102.695V21.0888C102.695 20.5419 102.553 20.114 102.269 19.805C101.988 19.4961 101.6 19.3416 101.102 19.3416C100.765 19.3416 100.465 19.4162 100.202 19.5653C99.9429 19.7109 99.7387 19.9222 99.5896 20.1992C99.444 20.4762 99.3712 20.8118 99.3712 21.206ZM110.669 17.8182V19.3097H105.966V17.8182H110.669ZM107.127 15.858H109.055V23.5391C109.055 23.7983 109.094 23.9972 109.172 24.1357C109.254 24.2706 109.361 24.3629 109.492 24.4126C109.623 24.4624 109.769 24.4872 109.929 24.4872C110.049 24.4872 110.16 24.4783 110.259 24.4606C110.362 24.4428 110.44 24.4268 110.493 24.4126L110.818 25.9201C110.715 25.9556 110.568 25.9947 110.376 26.0373C110.188 26.0799 109.957 26.1048 109.684 26.1119C109.201 26.1261 108.766 26.0533 108.379 25.8935C107.992 25.7301 107.684 25.478 107.457 25.1371C107.233 24.7962 107.123 24.37 107.127 23.8587V15.858ZM115.816 26.1598C114.996 26.1598 114.287 25.9893 113.691 25.6484C113.098 25.304 112.641 24.8175 112.322 24.1889C112.002 23.5568 111.842 22.8129 111.842 21.957C111.842 21.1154 112.002 20.3768 112.322 19.7411C112.645 19.1019 113.096 18.6048 113.675 18.2496C114.254 17.891 114.934 17.7116 115.715 17.7116C116.219 17.7116 116.695 17.7933 117.142 17.9567C117.593 18.1165 117.991 18.3651 118.336 18.7024C118.684 19.0398 118.957 19.4695 119.156 19.9915C119.355 20.5099 119.454 21.1278 119.454 21.8452V22.4364H112.748V21.1367H117.606C117.602 20.7674 117.522 20.4389 117.366 20.1513C117.21 19.8601 116.991 19.631 116.711 19.4641C116.434 19.2972 116.111 19.2138 115.741 19.2138C115.347 19.2138 115.001 19.3097 114.703 19.5014C114.404 19.6896 114.172 19.9382 114.005 20.2472C113.842 20.5526 113.758 20.8881 113.755 21.2539V22.3885C113.755 22.8643 113.842 23.2727 114.016 23.6136C114.19 23.951 114.433 24.2102 114.745 24.3913C115.058 24.5689 115.424 24.6577 115.843 24.6577C116.123 24.6577 116.377 24.6186 116.604 24.5405C116.832 24.4588 117.029 24.3398 117.196 24.1836C117.363 24.0273 117.489 23.8338 117.574 23.603L119.374 23.8054C119.261 24.2812 119.044 24.6967 118.724 25.0518C118.408 25.4034 118.004 25.6768 117.51 25.8722C117.016 26.0639 116.452 26.1598 115.816 26.1598ZM121.085 26V17.8182H122.955V19.1818H123.04C123.19 18.7095 123.445 18.3455 123.807 18.0898C124.173 17.8306 124.59 17.701 125.059 17.701C125.166 17.701 125.285 17.7063 125.416 17.717C125.551 17.7241 125.663 17.7365 125.752 17.7543V19.5281C125.67 19.4996 125.54 19.4748 125.363 19.4535C125.189 19.4286 125.02 19.4162 124.857 19.4162C124.505 19.4162 124.189 19.4925 123.909 19.6452C123.632 19.7944 123.413 20.0021 123.253 20.2685C123.094 20.5348 123.014 20.842 123.014 21.19V26H121.085Z"/><defs><filter id="filter0_b_9_8" width="305" height="200" x="-80" y="-80" color-interpolation-filters="sRGB" filterUnits="userSpaceOnUse"><feFlood flood-opacity="0" result="BackgroundImageFix"/><feGaussianBlur in="BackgroundImageFix" stdDeviation="40"/><feComposite in2="SourceAlpha" operator="in" result="effect1_backgroundBlur_9_8"/><feBlend in="SourceGraphic" in2="effect1_backgroundBlur_9_8" mode="normal" result="shape"/></filter><radialGradient id="paint0_radial_9_8" cx="0" cy="0" r="1" gradientTransform="translate(22.2132 8.41649) rotate(15.3118) scale(135.538 74.8061)" gradientUnits="userSpaceOnUse"><stop stop-color="#A5EFFF"/><stop offset=".771" stop-color="#6EBFF4" stop-opacity=".224"/><stop offset="1" stop-color="#4690D5" stop-opacity="0"/></radialGradient><radialGradient id="paint1_radial_9_8" cx="0" cy="0" r="1" gradientTransform="translate(-19.9446 -4.94578) rotate(14.0441) scale(120.139 111.985)" gradientUnits="userSpaceOnUse"><stop stop-color="#98F9FF"/><stop offset="1" stop-color="#fff" stop-opacity="0"/></radialGradient><radialGradient id="paint2_radial_9_8" cx="0" cy="0" r="1" gradientTransform="translate(157.005 45.0325) rotate(-163.557) scale(114.028 113.219)" gradientUnits="userSpaceOnUse"><stop stop-color="#ECF0FF"/><stop offset="1" stop-color="#D7E0FF"/></radialGradient><radialGradient id="paint3_radial_9_8" cx="0" cy="0" r="1" gradientTransform="translate(22.2132 8.41649) rotate(15.3118) scale(135.538 74.8061)" gradientUnits="userSpaceOnUse"><stop stop-color="#A5EFFF"/><stop offset=".771" stop-color="#6EBFF4" stop-opacity=".224"/><stop offset="1" stop-color="#4690D5" stop-opacity="0"/></radialGradient><radialGradient id="paint4_radial_9_8" cx="0" cy="0" r="1" gradientTransform="translate(-19.9446 -4.94578) rotate(14.0441) scale(120.139 111.985)" gradientUnits="userSpaceOnUse"><stop stop-color="#98F9FF"/><stop offset="1" stop-color="#fff" stop-opacity="0"/></radialGradient><radialGradient id="paint5_radial_9_8" cx="0" cy="0" r="1" gradientTransform="translate(157.005 45.0325) rotate(-163.557) scale(114.028 113.219)" gradientUnits="userSpaceOnUse"><stop stop-color="#ECF0FF"/><stop offset="1" stop-color="#D7E0FF"/></radialGradient></defs></svg>